<svg width="177" height="151" viewBox="0 0 177 151" fill="none" xmlns="http://www.w3.org/2000/svg">
<path d="M87.8415 0L42.1058 26.4098V79.2293L87.8415 105.639L133.577 79.2293V26.4098L87.8415 0ZM123.467 73.4521L87.7727 94.016L52.147 73.4521V32.1869L87.8415 11.5543L123.536 32.1869V73.4521H123.467Z" fill="white"/>
<path d="M114.939 36.9327V68.7069L96.1633 79.7798V62.2421H79.5196V79.7798L60.7439 68.7069V36.9327L79.5196 25.8599V43.879H96.1633V25.8599L114.939 36.9327Z" fill="white"/>
<path d="M22.231 150.549H16.9271V140.167H5.24741V150.549H0V125.892H5.24741V135.596H16.8707V125.892H22.1745V150.549H22.231Z" fill="white"/>
<path d="M51.0071 150.549H33.5721V125.892H51.0071V130.518H38.8195V135.709H50.7814V140.336H38.8195V145.922H51.0071V150.549Z" fill="white"/>
<path d="M73.5202 151C69.7962 151 66.6365 149.815 64.1538 147.445C61.6712 145.076 60.3734 142.029 60.3734 138.248C60.3734 134.468 61.6147 131.421 64.1538 129.051C66.6365 126.681 69.7962 125.497 73.5202 125.497C78.1469 125.497 81.5888 127.528 83.8457 131.534L79.3318 133.734C78.7676 132.719 77.9776 131.816 76.962 131.139C75.89 130.462 74.7615 130.123 73.5202 130.123C71.2632 130.123 69.4012 130.913 67.9906 132.437C66.5236 133.96 65.7901 135.879 65.7901 138.248C65.7901 140.618 66.5236 142.537 67.9906 144.06C69.4577 145.583 71.3196 146.373 73.5202 146.373C74.7615 146.373 75.89 146.035 76.962 145.358C78.0341 144.681 78.824 143.834 79.3318 142.762L83.8457 144.963C81.4759 148.969 78.0341 151 73.5202 151Z" fill="white"/>
<path d="M104.44 150.549H99.1365V130.518H91.9143V125.892H111.606V130.518H104.44V150.549Z" fill="white"/>
<path d="M133.16 151C129.436 151 126.333 149.815 123.907 147.389C121.48 144.963 120.239 141.916 120.239 138.248C120.239 134.524 121.48 131.477 123.907 129.108C126.333 126.681 129.436 125.497 133.16 125.497C136.884 125.497 139.987 126.681 142.414 129.108C144.84 131.477 146.081 134.581 146.081 138.305C146.081 142.029 144.84 145.076 142.414 147.502C139.987 149.815 136.884 151 133.16 151ZM127.743 144.06C129.098 145.583 130.903 146.373 133.16 146.373C135.417 146.373 137.223 145.583 138.577 144.06C139.931 142.537 140.664 140.618 140.664 138.248C140.664 135.879 139.987 133.96 138.577 132.437C137.223 130.913 135.361 130.123 133.16 130.123C130.903 130.123 129.098 130.913 127.743 132.437C126.389 133.96 125.712 135.879 125.712 138.248C125.712 140.562 126.389 142.48 127.743 144.06Z" fill="white"/>
<path d="M176.211 150.549H170.174L165.322 141.803H161.485V150.549H156.237V125.892H167.804C170.343 125.892 172.375 126.625 173.842 128.092C175.309 129.559 176.099 131.478 176.099 133.847C176.099 135.879 175.591 137.515 174.519 138.756C173.447 139.998 172.205 140.787 170.682 141.182L176.211 150.549ZM167.014 137.176C168.086 137.176 168.989 136.894 169.666 136.274C170.343 135.653 170.682 134.863 170.682 133.847C170.682 132.832 170.343 132.042 169.666 131.421C168.989 130.8 168.086 130.518 167.014 130.518H161.485V137.176H167.014Z" fill="white"/>
</svg>
