<svg width="92" height="36" viewBox="0 0 92 36" fill="none" xmlns="http://www.w3.org/2000/svg">
<g opacity="0.25">
<path fill-rule="evenodd" clip-rule="evenodd" d="M64.5705 26.7426C64.7831 26.6764 64.717 26.7048 64.6697 26.7237C64.6177 26.7426 64.5752 26.7615 64.5374 26.7757C64.4996 26.7898 64.4665 26.804 64.3672 26.8466C64.268 26.8844 64.1073 26.9505 63.1148 27.3475C62.1224 27.7492 60.3028 28.4818 58.2044 29.1103C56.1108 29.7389 53.7383 30.2635 51.3516 30.6794C48.9697 31.1 46.5783 31.4119 43.9222 31.6199C41.2662 31.8326 38.3455 31.9365 35.3019 31.894C32.2583 31.8467 29.0871 31.6577 26.1238 31.3174C23.1653 30.9771 20.4147 30.4904 17.8532 29.8854C15.2917 29.2852 12.9144 28.5716 10.7546 27.7351C8.59008 26.8985 6.63821 25.9391 5.02189 24.8285C3.40557 23.7226 2.12481 22.4655 1.29302 21.3359C0.465953 20.2017 0.0878664 19.1903 0.0122491 18.0844C-0.0586421 16.9738 0.172936 15.7734 0.844039 14.5493C1.51514 13.33 2.62577 12.0917 4.39332 10.8299C6.15615 9.56328 8.57118 8.27307 11.1611 7.25223C13.7557 6.2314 16.5299 5.48468 17.9146 5.10659C19.2994 4.73323 19.2994 4.73323 19.2663 4.74741C19.2332 4.76159 19.1623 4.78995 18.2833 5.14913C17.3995 5.50358 15.7028 6.19359 14.2661 6.86469C12.8341 7.54052 11.6573 8.20217 10.5325 9.00561C9.40769 9.80904 8.3396 10.7495 7.58343 11.6475C6.82725 12.5454 6.38773 13.4009 6.1656 14.3839C5.94348 15.3716 5.94348 16.487 6.20814 17.5315C6.46807 18.5806 6.99739 19.5542 7.95206 20.6034C8.90673 21.6479 10.2915 22.7632 11.974 23.7841C13.6517 24.8049 15.6272 25.7265 17.6925 26.4685C19.7625 27.2105 21.9271 27.7681 24.2759 28.2549C26.6295 28.7464 29.1674 29.1623 32.1638 29.4695C35.1554 29.772 38.5959 29.9658 42.0932 29.9469C45.5905 29.9327 49.1398 29.7058 52.415 29.2852C55.6902 28.8646 58.6912 28.2549 60.4777 27.8627C62.2641 27.4657 62.8313 27.2861 63.3559 27.1207C63.8805 26.9553 64.3625 26.804 64.5705 26.7426Z" fill="white"/>
<path fill-rule="evenodd" clip-rule="evenodd" d="M10.4521 5.69287C10.2205 5.75903 10.2914 5.73068 10.3434 5.71177C10.4001 5.68814 10.4473 5.66924 10.4851 5.65506C10.5277 5.63616 10.5702 5.62198 10.6789 5.57472C10.7876 5.53218 10.9672 5.46129 12.0589 5.02177C13.1507 4.58224 15.1592 3.76936 17.4703 3.07935C19.7861 2.38461 22.3996 1.80803 25.032 1.34488C27.6597 0.886448 30.3016 0.536719 33.227 0.309867C36.1572 0.0782891 39.3757 -0.0398628 42.7359 0.012124C46.0961 0.0593848 49.5934 0.267332 52.8592 0.645418C56.1202 1.01878 59.1543 1.55755 61.9805 2.2192C64.8067 2.88558 67.4249 3.67483 69.8116 4.59642C72.1935 5.518 74.3486 6.57665 76.1304 7.8007C77.9168 9.02003 79.3299 10.4048 80.2421 11.6572C81.1589 12.9049 81.5748 14.0202 81.6552 15.2395C81.7355 16.4636 81.4803 17.7916 80.743 19.1338C80.001 20.4808 78.7722 21.8466 76.8251 23.2455C74.878 24.6492 72.2172 26.0812 69.3532 27.2107C66.4939 28.3402 63.4361 29.1673 61.9049 29.5832C60.3784 29.9944 60.3784 29.9944 60.4398 29.9707C60.506 29.9471 60.6336 29.8951 61.6024 29.4981C62.576 29.1059 64.3955 28.3686 65.9551 27.6266C67.5147 26.8893 68.8144 26.1473 70.0526 25.2588C71.2909 24.3656 72.4724 23.3306 73.3089 22.3381C74.1407 21.3456 74.6275 20.4051 74.8685 19.3182C75.1143 18.2312 75.1143 17.0024 74.826 15.8492C74.533 14.6913 73.9564 13.6185 72.9025 12.4606C71.8485 11.3074 70.3173 10.0787 68.4647 8.95386C66.612 7.82906 64.4381 6.80822 62.1554 5.99061C59.8727 5.173 57.4907 4.55861 54.8961 4.01984C52.3015 3.48107 49.4989 3.01791 46.2001 2.68236C42.8966 2.34681 39.1015 2.13413 35.2451 2.15304C31.3886 2.17194 27.4754 2.42242 23.8599 2.88558C20.2492 3.34873 16.9362 4.01984 14.9655 4.45464C12.9994 4.88944 12.3709 5.08793 11.7943 5.27225C11.213 5.45184 10.6836 5.62198 10.4521 5.69287Z" fill="white"/>
<path fill-rule="evenodd" clip-rule="evenodd" d="M9.47405 29.4651C9.20939 29.3848 9.28974 29.4179 9.35118 29.4415C9.41734 29.4699 9.46933 29.4888 9.51659 29.5077C9.56385 29.5266 9.61111 29.5455 9.73399 29.5975C9.86159 29.6494 10.0648 29.7298 11.3172 30.2355C12.5744 30.7412 14.8807 31.6675 17.5367 32.4662C20.1928 33.2602 23.1939 33.9218 26.2138 34.4511C29.2338 34.9852 32.2632 35.3822 35.6282 35.6468C38.9884 35.9115 42.6889 36.0438 46.5407 35.9871C50.3972 35.9351 54.4143 35.6894 58.1621 35.2593C61.9146 34.8292 65.3977 34.2101 68.6398 33.4492C71.8819 32.6883 74.8877 31.7809 77.6288 30.7223C80.3652 29.6636 82.8417 28.449 84.8881 27.0454C86.9345 25.6417 88.5555 24.0538 89.6094 22.617C90.6586 21.1803 91.136 19.8995 91.2305 18.5006C91.3203 17.097 91.032 15.5752 90.1766 14.0298C89.3259 12.4843 87.9175 10.9153 85.6868 9.31313C83.4514 7.71099 80.3936 6.08049 77.1231 4.82336C73.8527 3.56622 70.3648 2.68717 68.5642 2.22874C66.7588 1.77031 66.636 1.73723 66.5651 1.71832C66.4942 1.69942 66.4753 1.69469 66.4658 1.69469C66.4564 1.68997 66.4564 1.68997 67.6284 2.12949C68.8052 2.56429 71.1541 3.43862 73.0776 4.29404C74.9964 5.14946 76.4851 5.9907 77.9077 7.00681C79.3302 8.02291 80.6866 9.21388 81.6413 10.3529C82.6007 11.4871 83.1583 12.5694 83.4372 13.8171C83.716 15.0648 83.716 16.4779 83.3852 17.8059C83.0544 19.1292 82.388 20.3674 81.1781 21.6907C79.9682 23.014 78.2149 24.4271 76.0834 25.7221C73.9567 27.0123 71.4566 28.1844 68.8383 29.1201C66.2201 30.0606 63.479 30.7648 60.5015 31.3839C57.5241 32.003 54.3056 32.5324 50.52 32.9199C46.7297 33.3074 42.3676 33.5485 37.9392 33.5248C33.5109 33.5059 29.0211 33.2176 24.8716 32.6883C20.7221 32.159 16.9224 31.3839 14.6586 30.883C12.3995 30.3867 11.6811 30.1599 11.0148 29.9472C10.3484 29.7392 9.73872 29.5455 9.47405 29.4651Z" fill="white"/>
<path d="M20.9344 19.6116C20.1073 20.3394 19.1621 20.7033 18.1035 20.7033C16.9692 20.7033 16.0004 20.3347 15.2017 19.6021C14.403 18.8649 14.006 17.9716 14.006 16.9319C14.006 15.8922 14.403 14.9989 15.2017 14.2617C16.0004 13.5244 16.9692 13.1558 18.1035 13.1558C19.1621 13.1558 20.1641 13.5528 21.114 14.3515L20.3342 14.9989C19.6206 14.4176 18.8786 14.1246 18.1035 14.1246C17.2622 14.1246 16.5439 14.3987 15.9484 14.9422C15.3529 15.4952 15.0552 16.1568 15.0552 16.9319C15.0552 17.707 15.3529 18.3734 15.9484 18.9216C16.5439 19.4698 17.2622 19.7439 18.1035 19.7439C18.8219 19.7439 19.4221 19.569 19.8947 19.2146V16.9839H20.9344V19.6116Z" fill="white"/>
<path d="M25.8782 17.055L25.193 15.3253L24.5077 17.055H25.8782ZM25.4718 13.2363L28.3925 20.6232H27.2866L26.2563 18.0097H24.1296L23.0993 20.6232H21.9934L24.9094 13.2363H25.4718Z" fill="white"/>
<path d="M29.3945 20.6232V13.2363H30.4295V19.6638H33.2983V20.6232H29.3945Z" fill="white"/>
<path d="M37.8869 17.055L37.2016 15.3253L36.5163 17.055H37.8869ZM37.4805 13.2363L40.4012 20.6232H39.2953L38.265 18.0097H36.1383L35.108 20.6232H34.0021L36.9181 13.2363H37.4805Z" fill="white"/>
<path d="M40.9027 20.6232L43.4217 16.5918L41.3233 13.2363H42.5143L44.0172 15.6419L45.5343 13.2363H46.7252L44.6127 16.5918L47.1459 20.6232H45.9549L44.0172 17.5465L42.0937 20.6232H40.9027Z" fill="white"/>
<path d="M50.4254 17.6599L47.6559 13.2363H48.8469L50.9405 16.5824L53.0436 13.2363H54.244L51.4651 17.6599V20.6232H50.4254V17.6599Z" fill="white"/>
<path d="M59.934 13.2363V20.6232H58.8943V13.2363H59.934Z" fill="white"/>
<path d="M63.9559 14.191V20.6232H62.9114V14.191H61.0399V13.2363H65.8227V14.191H63.9559Z" fill="white"/>
</g>
</svg>
