<svg width="63" height="63" viewBox="0 0 63 63" fill="none" xmlns="http://www.w3.org/2000/svg">
<path d="M0 0H63L31.5 31.5L0 63V0Z" fill="#0F0F0F"/>
<path d="M13.4983 26.385L20.428 33.3146L19.1113 34.6312L11.4491 33.8789L15.6564 38.0862L14.0725 39.6701L7.14284 32.7404L8.46938 31.4139L16.1217 32.1762L11.9144 27.9689L13.4983 26.385ZM27.136 24.0327L28.423 25.3196L23.0574 30.6851L16.1278 23.7555L21.3646 18.5187L22.6516 19.8056L19.0085 23.4486L20.5133 24.9533L23.7306 21.736L24.9779 22.9833L21.7606 26.2007L23.3643 27.8044L27.136 24.0327ZM34.1363 5.74699L38.799 14.9436L37.0764 16.6661L30.8596 13.4983L33.9779 19.7647L32.2653 21.4773L23.0588 16.8245L24.7219 15.1614L31.1565 18.4678L27.9194 11.9639L29.4043 10.479L35.8984 13.8052L32.6019 7.28142L34.1363 5.74699Z" fill="white"/>
</svg>
